<svg xmlns="http://www.w3.org/2000/svg" viewBox="0 0 640 640" width="640" height="640" preserveAspectRatio="xMidYMid meet" style="width: 100%; height: 100%; transform: translate3d(0px, 0px, 0px); content-visibility: visible;"><defs><clipPath id="__lottie_element_59"><rect width="640" height="640" x="0" y="0"></rect></clipPath></defs><g clip-path="url(#__lottie_element_59)"><g transform="matrix(1,0,0,1,320,320)" opacity="1" style="display: block;"><g opacity="1" transform="matrix(1,0,0,1,0,0)"><path fill="rgb(159,239,0)" fill-opacity="1" d=" M209.50399780273438,-0.8560000061988831 C209.50399780273438,25.437999725341797 209.33599853515625,51.731998443603516 209.5500030517578,78.02400207519531 C209.7779998779297,106.03900146484375 197.9459991455078,126.53099822998047 173.3679962158203,140.35299682617188 C127.18099975585938,166.32699584960938 81.447998046875,193.11000061035156 35.189998626708984,218.9530029296875 C25.631000518798828,224.29299926757812 14.869999885559082,228.20700073242188 4.175000190734863,230.57899475097656 C-6.252999782562256,232.89199829101562 -16.70599937438965,228.64700317382812 -25.871000289916992,223.7689971923828 C-48.012001037597656,211.98500061035156 -69.71600341796875,199.3719940185547 -91.51799774169922,186.95799255371094 C-119.24500274658203,171.1699981689453 -146.79600524902344,155.072998046875 -174.6179962158203,139.4550018310547 C-190.1269989013672,130.74899291992188 -201.3509979248047,118.6050033569336 -206.43899536132812,101.53500366210938 C-208.4029998779297,94.94599914550781 -209.3679962158203,87.81900024414062 -209.39500427246094,80.93099975585938 C-209.61099243164062,26.347999572753906 -209.58799743652344,-28.236000061035156 -209.43099975585938,-82.81999969482422 C-209.35800170898438,-108.1969985961914 -198.23699951171875,-127.43599700927734 -176.11399841308594,-140.0709991455078 C-131.68800354003906,-165.44500732421875 -87.24400329589844,-190.78799438476562 -42.76599884033203,-216.06900024414062 C-35.84600067138672,-220.0019989013672 -28.99799919128418,-224.32400512695312 -21.606000900268555,-227.11099243164062 C-2.937999963760376,-234.14999389648438 15.180999755859375,-231.96600341796875 32.46900177001953,-222.06100463867188 C80.46900177001953,-194.56100463867188 128.47999572753906,-167.0780029296875 176.52699279785156,-139.66099548339844 C198.8070068359375,-126.947998046875 209.27099609375,-107.4749984741211 209.44000244140625,-82.23300170898438 C209.6219940185547,-55.10900115966797 209.4810028076172,-27.98200035095215 209.4810028076172,-0.8560000061988831 C209.48800659179688,-0.8560000061988831 209.4969940185547,-0.8560000061988831 209.50399780273438,-0.8560000061988831z M167.61599731445312,-72.8030014038086 C165.8520050048828,-71.97899627685547 164.66200256347656,-71.5270004272461 163.57400512695312,-70.89900207519531 C117.27799987792969,-44.1609992980957 71.01300048828125,-17.3700008392334 24.658000946044922,9.265000343322754 C21.531999588012695,11.060999870300293 20.89299964904785,13.156999588012695 20.898000717163086,16.427000045776367 C20.972999572753906,69.16100311279297 20.93400001525879,121.89600372314453 20.937999725341797,174.6300048828125 C20.937999725341797,175.8520050048828 21.121999740600586,177.072998046875 21.24799919128418,178.63999938964844 C22.492000579833984,178.07899475097656 23.259000778198242,177.8070068359375 23.954999923706055,177.40899658203125 C67.06600189208984,152.7530059814453 110.11000061035156,127.9800033569336 153.32200622558594,103.50299835205078 C163.375,97.80899810791016 167.79100036621094,89.95500183105469 167.7259979248047,78.37899780273438 C167.45199584960938,29.80500030517578 167.61399841308594,-18.77199935913086 167.61599731445312,-67.34700012207031 C167.61599731445312,-68.95099639892578 167.61599731445312,-70.55500030517578 167.61599731445312,-72.8030014038086z M-167.64599609375,-73.24199676513672 C-167.64599609375,-70.38600158691406 -167.64599609375,-68.61100006103516 -167.64599609375,-66.83599853515625 C-167.6439971923828,-17.893999099731445 -167.5399932861328,31.04800033569336 -167.72000122070312,79.98999786376953 C-167.75900268554688,90.59300231933594 -163.60400390625,97.75399780273438 -154.28500366210938,103.01000213623047 C-114.62899780273438,125.375 -75.18800354003906,148.11900329589844 -35.654998779296875,170.70199584960938 C-31.000999450683594,173.36000061035156 -26.264999389648438,175.8730010986328 -20.972000122070312,178.781005859375 C-20.972000122070312,175.68099975585938 -20.972000122070312,173.52699279785156 -20.972000122070312,171.3719940185547 C-20.972000122070312,120.0989990234375 -21.04599952697754,68.82599639892578 -20.847000122070312,17.554000854492188 C-20.82900047302246,12.904000282287598 -22.389999389648438,10.52299976348877 -26.257999420166016,8.315999984741211 C-55.98699951171875,-8.645000457763672 -85.60800170898438,-25.79599952697754 -115.25,-42.909000396728516 C-132.36700439453125,-52.79100036621094 -149.46200561523438,-62.7130012512207 -167.64599609375,-73.24199676513672z M145.5590057373047,-108.81900024414062 C144.33700561523438,-109.65499877929688 143.8159942626953,-110.06800079345703 143.24600219726562,-110.39299774169922 C100.10399627685547,-135.01199340820312 56.83100128173828,-159.406005859375 13.904999732971191,-184.39700317382812 C3.674999952316284,-190.35299682617188 -4.98799991607666,-189.95700073242188 -14.875,-184.08799743652344 C-38.28300094604492,-170.1929931640625 -62.0369987487793,-156.88299560546875 -85.66500091552734,-143.36099243164062 C-105.54399871826172,-131.98500061035156 -125.44200134277344,-120.64299774169922 -145.8769989013672,-108.9739990234375 C-141.9929962158203,-106.76599884033203 -138.55099487304688,-104.83499908447266 -135.13299560546875,-102.86199951171875 C-91.552001953125,-77.70099639892578 -47.944000244140625,-52.58599853515625 -4.452000141143799,-27.27199935913086 C-1.0889999866485596,-25.315000534057617 1.2009999752044678,-25.275999069213867 4.51200008392334,-27.20599937438965 C37.21799850463867,-46.275001525878906 70.0270004272461,-65.16699981689453 102.80699920654297,-84.11000061035156 C116.87999725341797,-92.24299621582031 130.9530029296875,-100.37699890136719 145.5590057373047,-108.81900024414062z"></path></g></g></g></svg>